<?xml version="1.0" encoding="UTF-8"?>
<svg width="169.3mm" height="71.17mm" version="1.1" viewBox="0 0 169.33333 71.17292" xmlns="http://www.w3.org/2000/svg"><g fill="#f2f2f2" shape-rendering="auto"><rect x="4.139" y="4.256" width="28.84" height="26.47" color="#000000" color-rendering="auto" image-rendering="auto" solid-color="#000000" style="isolation:auto;mix-blend-mode:normal"/><rect x="37.21" y="4.256" width="28.84" height="26.47" color="#000000" color-rendering="auto" image-rendering="auto" solid-color="#000000" style="isolation:auto;mix-blend-mode:normal"/><rect x="70.28" y="4.256" width="28.84" height="26.47" color="#000000" color-rendering="auto" image-rendering="auto" solid-color="#000000" style="isolation:auto;mix-blend-mode:normal"/><rect x="103.4" y="4.256" width="28.84" height="26.47" color="#000000" color-rendering="auto" image-rendering="auto" solid-color="#000000" style="isolation:auto;mix-blend-mode:normal"/><rect x="136.4" y="4.256" width="28.84" height="26.47" color="#000000" color-rendering="auto" image-rendering="auto" solid-color="#000000" style="isolation:auto;mix-blend-mode:normal"/><rect x="4.139" y="37.06" width="28.84" height="26.65" color="#000000" color-rendering="auto" image-rendering="auto" solid-color="#000000" style="isolation:auto;mix-blend-mode:normal"/><rect x="37.21" y="37.06" width="28.84" height="26.65" color="#000000" color-rendering="auto" image-rendering="auto" solid-color="#000000" style="isolation:auto;mix-blend-mode:normal"/><rect x="70.28" y="37.06" width="28.84" height="26.65" color="#000000" color-rendering="auto" image-rendering="auto" solid-color="#000000" style="isolation:auto;mix-blend-mode:normal"/><rect x="103.4" y="37.06" width="28.84" height="26.65" color="#000000" color-rendering="auto" image-rendering="auto" solid-color="#000000" style="isolation:auto;mix-blend-mode:normal"/><rect x="136.4" y="37.06" width="28.84" height="26.65" color="#000000" color-rendering="auto" image-rendering="auto" solid-color="#000000" style="isolation:auto;mix-blend-mode:normal"/></g><g transform="translate(3.551e-7 -2.114e-6)" fill="#000000" font-family="monospace" font-size="2.822px" letter-spacing="0px" stroke-width=".2646px" text-anchor="middle" word-spacing="0px"><text x="18.539898" y="33.837856" text-align="center" style="line-height:6.61458349px" xml:space="preserve"><tspan x="18.539898" y="33.837856" font-family="monospace" font-size="2.822px" stroke-width=".2646px" text-align="center" text-anchor="middle">GL_POINTS</tspan></text><text x="51.61282" y="33.837856" text-align="center" style="line-height:6.61458349px" xml:space="preserve"><tspan x="51.61282" y="33.837856" font-family="monospace" font-size="2.822px" stroke-width=".2646px" text-align="center" text-anchor="middle">GL_LINES</tspan></text><text x="84.693336" y="33.837856" text-align="center" style="line-height:6.61458349px" xml:space="preserve"><tspan x="84.693336" y="33.837856" font-family="monospace" font-size="2.822px" stroke-width=".2646px" text-align="center" text-anchor="middle">GL_LINE_STRIP</tspan></text><text x="117.76626" y="33.837856" text-align="center" style="line-height:6.61458349px" xml:space="preserve"><tspan x="117.76626" y="33.837856" font-family="monospace" font-size="2.822px" stroke-width=".2646px" text-align="center" text-anchor="middle">GL_LINE_LOOP</tspan></text><text x="150.8316" y="33.837856" text-align="center" style="line-height:6.61458349px" xml:space="preserve"><tspan x="150.8316" y="33.837856" font-family="monospace" font-size="2.822px" stroke-width=".2646px" text-align="center" text-anchor="middle">GL_TRIANGLES</tspan></text><text x="18.547476" y="66.910835" text-align="center" style="line-height:6.61458349px" xml:space="preserve"><tspan x="18.547476" y="66.910835" font-family="monospace" font-size="2.822px" stroke-width=".2646px" text-align="center" text-anchor="middle">GL_TRIANGLE_STRIP</tspan></text><text x="51.684479" y="66.910835" text-align="center" style="line-height:6.61458349px" xml:space="preserve"><tspan x="51.684479" y="66.910835" font-family="monospace" font-size="2.822px" stroke-width=".2646px" text-align="center" text-anchor="middle">GL_TRIANGLE_FAN</tspan></text><text x="84.685753" y="66.910835" text-align="center" style="line-height:6.61458349px" xml:space="preserve"><tspan x="84.685753" y="66.910835" font-family="monospace" font-size="2.822px" stroke-width=".2646px" text-align="center" text-anchor="middle">GL_QUADS</tspan></text><text x="117.76626" y="66.910835" text-align="center" style="line-height:6.61458349px" xml:space="preserve"><tspan x="117.76626" y="66.910835" font-family="monospace" font-size="2.822px" stroke-width=".2646px" text-align="center" text-anchor="middle">GL_QUAD_STRIP</tspan></text><text x="150.90326" y="66.910835" text-align="center" style="line-height:6.61458349px" xml:space="preserve"><tspan x="150.90326" y="66.910835" font-family="monospace" font-size="2.822px" stroke-width=".2646px" text-align="center" text-anchor="middle">GL_POLYGON</tspan></text></g><g shape-rendering="auto" stroke="#999" stroke-width=".265"><g fill="none"><path transform="translate(3.551e-7 -2.114e-6)" d="m41.82 9.593 20.68 1.874" color="#000000" color-rendering="auto" image-rendering="auto" solid-color="#000000" style="isolation:auto;mix-blend-mode:normal"/><path transform="translate(3.551e-7 -2.114e-6)" d="m44.12 14.87 15.56-7.635" color="#000000" color-rendering="auto" image-rendering="auto" solid-color="#000000" style="isolation:auto;mix-blend-mode:normal"/><path transform="translate(3.551e-7 -2.114e-6)" d="m45.24 21.99 10.73-6.545" color="#000000" color-rendering="auto" image-rendering="auto" solid-color="#000000" style="isolation:auto;mix-blend-mode:normal"/><path transform="translate(3.551e-7 -2.114e-6)" d="m40.32 18.37 21.82 4.162" color="#000000" color-rendering="auto" image-rendering="auto" solid-color="#000000" style="isolation:auto;mix-blend-mode:normal"/><path transform="translate(3.551e-7 -2.114e-6)" d="m40.78 24.89 20.31 1.26" color="#000000" color-rendering="auto" image-rendering="auto" solid-color="#000000" style="isolation:auto;mix-blend-mode:normal"/><path transform="translate(3.551e-7 -2.114e-6)" d="m91.03 7.983-8.514-0.1271-6.152 4.511-0.5374 7.011 3.79 4.956 7.453 2.044 4.766-1.228 1.004-3.844-2.192-3.855-3.649-0.8896" color="#000000" color-rendering="auto" image-rendering="auto" solid-color="#000000" style="isolation:auto;mix-blend-mode:normal"/><path transform="translate(3.551e-7 -2.114e-6)" d="m124.4 7.835-8.881 0.1906-6.279 4.405-0.4808 6.65 3.394 5.189 8.33 2.086 4.299-1.408 1.061-3.791-1.966-3.823-3.804-0.7201z" color="#000000" color-rendering="auto" image-rendering="auto" solid-color="#000000" style="isolation:auto;mix-blend-mode:normal"/></g><g fill="#fff"><path transform="translate(3.551e-7 -2.114e-6)" d="m140.9 18.43 2.362-11.29 8.372 7.011z" color="#000000" color-rendering="auto" image-rendering="auto" solid-color="#000000" style="isolation:auto;mix-blend-mode:normal"/><path transform="translate(3.551e-7 -2.114e-6)" d="m153.1 20.65 3.224-10.23 6.251 8.768z" color="#000000" color-rendering="auto" image-rendering="auto" solid-color="#000000" style="isolation:auto;mix-blend-mode:normal"/><path transform="translate(3.551e-7 -2.114e-6)" d="m141.2 25.88 7.099-7.911 2.814 9.806z" color="#000000" color-rendering="auto" image-rendering="auto" solid-color="#000000" style="isolation:auto;mix-blend-mode:normal"/><path transform="translate(3.551e-7 -2.114e-6)" d="m141.1 53.04 0.6222-7.053 3.055-3.685 6.817-1.165 6.307 3.399 3.267 6.661-1.061 5.962-9.885 2.573-5.02-0.3918z" color="#000000" color-rendering="auto" image-rendering="auto" solid-color="#000000" style="isolation:auto;mix-blend-mode:normal"/><path transform="translate(3.551e-7 -2.114e-6)" d="m7.263 59.4 3.253-7.169 5.812 6.862z" color="#000000" color-rendering="auto" image-rendering="auto" solid-color="#000000" style="isolation:auto;mix-blend-mode:normal"/><path transform="translate(3.551e-7 -2.114e-6)" d="m17.86 50.4-7.34 1.821 5.812 6.862z" color="#000000" color-rendering="auto" image-rendering="auto" solid-color="#000000" style="isolation:auto;mix-blend-mode:normal"/><path transform="translate(3.551e-7 -2.114e-6)" d="m17.86 50.4 7.043 5.136-8.57 3.548z" color="#000000" color-rendering="auto" image-rendering="auto" solid-color="#000000" style="isolation:auto;mix-blend-mode:normal"/><path transform="translate(3.551e-7 -2.114e-6)" d="m17.86 50.4 5.247-3.018 1.796 8.154z" color="#000000" color-rendering="auto" image-rendering="auto" solid-color="#000000" style="isolation:auto;mix-blend-mode:normal"/><path transform="translate(3.551e-7 -2.114e-6)" d="m23.1 47.39 5.657 1.408-3.861 6.746z" color="#000000" color-rendering="auto" image-rendering="auto" solid-color="#000000" style="isolation:auto;mix-blend-mode:normal"/><path transform="translate(3.551e-7 -2.114e-6)" d="m23.1 47.39 2.121-4.765 3.536 6.174z" color="#000000" color-rendering="auto" image-rendering="auto" solid-color="#000000" style="isolation:auto;mix-blend-mode:normal"/><path transform="translate(3.551e-7 -2.114e-6)" d="m25.22 42.62 3.536-2.806v8.98z" color="#000000" color-rendering="auto" image-rendering="auto" solid-color="#000000" style="isolation:auto;mix-blend-mode:normal"/><path transform="translate(3.551e-7 -2.114e-6)" d="m54.85 40.47-3.437 11.81-2.729-12.16z" color="#000000" color-rendering="auto" image-rendering="auto" solid-color="#000000" style="isolation:auto;mix-blend-mode:normal"/><path transform="translate(3.551e-7 -2.114e-6)" d="m43.17 42.98 5.515-2.859 2.729 12.16z" color="#000000" color-rendering="auto" image-rendering="auto" solid-color="#000000" style="isolation:auto;mix-blend-mode:normal"/><path transform="translate(3.551e-7 -2.114e-6)" d="m43.17 42.98-2.036 6.163 10.28 3.135z" color="#000000" color-rendering="auto" image-rendering="auto" solid-color="#000000" style="isolation:auto;mix-blend-mode:normal"/><path transform="translate(3.551e-7 -2.114e-6)" d="m41.13 49.14 3.762 7.879 6.52-4.744z" color="#000000" color-rendering="auto" image-rendering="auto" solid-color="#000000" style="isolation:auto;mix-blend-mode:normal"/><path transform="translate(3.551e-7 -2.114e-6)" d="m44.9 57.02 6.52-4.744 1.739 7.529z" color="#000000" color-rendering="auto" image-rendering="auto" solid-color="#000000" style="isolation:auto;mix-blend-mode:normal"/><path transform="translate(3.551e-7 -2.114e-6)" d="m51.41 52.28 7.778 5.846-6.039 1.684z" color="#000000" color-rendering="auto" image-rendering="auto" solid-color="#000000" style="isolation:auto;mix-blend-mode:normal"/><path transform="translate(3.551e-7 -2.114e-6)" d="m51.41 52.28 11.27 2.001-3.493 3.844z" color="#000000" color-rendering="auto" image-rendering="auto" solid-color="#000000" style="isolation:auto;mix-blend-mode:normal"/><path transform="translate(3.551e-7 -2.114e-6)" d="m62.97 50.35-0.2828 3.929-11.27-2.001z" color="#000000" color-rendering="auto" image-rendering="auto" solid-color="#000000" style="isolation:auto;mix-blend-mode:normal"/><path transform="translate(3.551e-7 -2.114e-6)" d="m73.85 48.48-0.2121-8.324 6.887 1.578-0.1838 6.502z" color="#000000" color-rendering="auto" image-rendering="auto" solid-color="#000000" style="isolation:auto;mix-blend-mode:normal"/><path transform="translate(3.551e-7 -2.114e-6)" d="m72.92 53.85 7.552-1.451 1.301 6.672-7.552 0.2647z" color="#000000" color-rendering="auto" image-rendering="auto" solid-color="#000000" style="isolation:auto;mix-blend-mode:normal"/><path transform="translate(3.551e-7 -2.114e-6)" d="m84.36 42.93 12.37-1.737 0.2263 15.95-13.04-1.98z" color="#000000" color-rendering="auto" image-rendering="auto" solid-color="#000000" style="isolation:auto;mix-blend-mode:normal"/><path transform="translate(3.551e-7 -2.114e-6)" d="m105.2 50.98 5.218-1.779-0.099 5.221-4.893-0.2118z" color="#000000" color-rendering="auto" image-rendering="auto" solid-color="#000000" style="isolation:auto;mix-blend-mode:normal"/><path transform="translate(3.551e-7 -2.114e-6)" d="m116.8 47-0.495 8.641-6.01-1.218 0.099-5.221z" color="#000000" color-rendering="auto" image-rendering="auto" solid-color="#000000" style="isolation:auto;mix-blend-mode:normal"/><path transform="translate(3.551e-7 -2.114e-6)" d="m123.1 40.24-0.2121 19-6.52-3.601 0.495-8.641z" color="#000000" color-rendering="auto" image-rendering="auto" solid-color="#000000" style="isolation:auto;mix-blend-mode:normal"/><path d="m130.8 42.34-0.26 15.89-7.675 1.016 0.2121-19z" color="#000000" color-rendering="auto" image-rendering="auto" solid-color="#000000" style="isolation:auto;mix-blend-mode:normal"/></g></g><g><g transform="translate(3.551e-7 -2.114e-6)"><circle cx="124.4" cy="7.835" r=".3969"/><circle cx="115.6" cy="8.025" r=".3969"/><circle cx="109.3" cy="12.43" r=".3969"/><circle cx="108.8" cy="19.08" r=".3969"/><circle cx="112.2" cy="24.27" r=".3969"/><circle cx="120.5" cy="26.36" r=".3969"/><circle cx="124.8" cy="24.95" r=".3969"/><circle cx="125.9" cy="21.16" r=".3969"/><circle cx="123.9" cy="17.33" r=".3969"/><circle cx="120.1" cy="16.61" r=".3969"/></g><g fill="#999999" font-family="monospace" font-size="1.869px" writing-mode="lr"><text x="125.00484" y="7.9394102" style="font-feature-settings:normal;font-variant-caps:normal;font-variant-ligatures:normal;font-variant-numeric:normal">v0</text><text x="114.15361" y="7.0442386" style="font-feature-settings:normal;font-variant-caps:normal;font-variant-ligatures:normal;font-variant-numeric:normal">v1</text><text x="106.15449" y="12.288325" style="font-feature-settings:normal;font-variant-caps:normal;font-variant-ligatures:normal;font-variant-numeric:normal">v2</text><text x="105.76366" y="20.047054" style="font-feature-settings:normal;font-variant-caps:normal;font-variant-ligatures:normal;font-variant-numeric:normal">v3</text><text x="110.83778" y="26.583994" style="font-feature-settings:normal;font-variant-caps:normal;font-variant-ligatures:normal;font-variant-numeric:normal">v4</text><text x="119.4775" y="28.408123" style="font-feature-settings:normal;font-variant-caps:normal;font-variant-ligatures:normal;font-variant-numeric:normal">v5</text><text x="124.22671" y="26.932268" style="font-feature-settings:normal;font-variant-caps:normal;font-variant-ligatures:normal;font-variant-numeric:normal">v6</text><text x="126.74737" y="21.860592" style="font-feature-settings:normal;font-variant-caps:normal;font-variant-ligatures:normal;font-variant-numeric:normal">v7</text><text x="124.5416" y="17.835447" style="font-feature-settings:normal;font-variant-caps:normal;font-variant-ligatures:normal;font-variant-numeric:normal">v8</text><text x="116.96737" y="17.66946" style="font-feature-settings:normal;font-variant-caps:normal;font-variant-ligatures:normal;font-variant-numeric:normal">v9</text></g><g transform="translate(3.551e-7 -2.114e-6)"><circle cx="141.2" cy="25.88" r=".3969"/><circle cx="148.3" cy="17.97" r=".3969"/><circle cx="151.1" cy="27.78" r=".3969"/></g><g fill="#999999" font-family="monospace" font-size="1.869px" writing-mode="lr"><text x="138.18443" y="27.418419" style="font-feature-settings:normal;font-variant-caps:normal;font-variant-ligatures:normal;font-variant-numeric:normal">v3</text><text x="149.02377" y="18.73646" style="font-feature-settings:normal;font-variant-caps:normal;font-variant-ligatures:normal;font-variant-numeric:normal">v4</text><text x="150.11806" y="30.070322" style="font-feature-settings:normal;font-variant-caps:normal;font-variant-ligatures:normal;font-variant-numeric:normal">v5</text></g><g transform="translate(3.551e-7 -2.114e-6)"><circle cx="153.1" cy="20.65" r=".3969"/><circle cx="156.3" cy="10.42" r=".3969"/><circle cx="162.6" cy="19.19" r=".3969"/></g><g fill="#999999" font-family="monospace" font-size="1.869px" writing-mode="lr"><text x="152.5321" y="22.980745" style="font-feature-settings:normal;font-variant-caps:normal;font-variant-ligatures:normal;font-variant-numeric:normal">v6</text><text x="155.56651" y="9.6058311" style="font-feature-settings:normal;font-variant-caps:normal;font-variant-ligatures:normal;font-variant-numeric:normal">v7</text><text x="161.74733" y="21.541801" style="font-feature-settings:normal;font-variant-caps:normal;font-variant-ligatures:normal;font-variant-numeric:normal">v8</text></g><g transform="translate(3.551e-7 -2.114e-6)"><circle cx="140.9" cy="18.43" r=".3969"/><circle cx="143.2" cy="7.139" r=".3969"/><circle cx="151.6" cy="14.15" r=".3969"/></g><g fill="#999999" font-family="monospace" font-size="1.869px" writing-mode="lr"><text x="138.3333" y="20.674492" style="font-feature-settings:normal;font-variant-caps:normal;font-variant-ligatures:normal;font-variant-numeric:normal">v0</text><text x="143.76503" y="6.9594531" style="font-feature-settings:normal;font-variant-caps:normal;font-variant-ligatures:normal;font-variant-numeric:normal">v1</text><text x="151.10718" y="16.223932" style="font-feature-settings:normal;font-variant-caps:normal;font-variant-ligatures:normal;font-variant-numeric:normal">v2</text></g><g><circle cx="9.818" cy="9.208" r=".3969"/><circle cx="13.98" cy="11.36" r=".3969"/><circle cx="22" cy="10.71" r=".3969"/><circle cx="7.178" cy="14.75" r=".3969"/><circle cx="14" cy="19.39" r=".3969"/><circle cx="20.88" cy="23.6" r=".3969"/><circle cx="27.56" cy="16.14" r=".3969"/><circle cx="18.7" cy="16.14" r=".3969"/><circle cx="9.358" cy="26.87" r=".3969"/><circle cx="28.98" cy="25.23" r=".3969"/></g><g transform="translate(3.551e-7 -2.114e-6)"><circle cx="44.12" cy="14.87" r=".3969"/><circle cx="59.68" cy="7.231" r=".3969"/></g><g transform="translate(3.551e-7 -2.114e-6)"><circle cx="45.24" cy="21.99" r=".3969"/><circle cx="55.97" cy="15.45" r=".3969"/></g><g transform="translate(3.551e-7 -2.114e-6)"><circle cx="40.32" cy="18.37" r=".3969"/><circle cx="62.14" cy="22.53" r=".3969"/></g><g transform="translate(3.551e-7 -2.114e-6)"><circle cx="41.82" cy="9.593" r=".3969"/><circle cx="62.49" cy="11.47" r=".3969"/></g><g transform="translate(3.551e-7 -2.114e-6)"><circle cx="40.78" cy="24.89" r=".3969"/><circle cx="61.09" cy="26.16" r=".3969"/></g><g transform="translate(3.551e-7 -2.114e-6)"><circle cx="91.03" cy="7.983" r=".3969"/><circle cx="82.52" cy="7.856" r=".3969"/><circle cx="76.36" cy="12.37" r=".3969"/><circle cx="75.83" cy="19.38" r=".3969"/><circle cx="79.62" cy="24.33" r=".3969"/><circle cx="87.07" cy="26.38" r=".3969"/><circle cx="91.84" cy="25.15" r=".3969"/><circle cx="92.84" cy="21.3" r=".3969"/><circle cx="90.65" cy="17.45" r=".3969"/><circle cx="87" cy="16.56" r=".3969"/></g><g transform="translate(3.551e-7 -2.114e-6)"><circle cx="105.2" cy="50.98" r=".3969"/><circle cx="110.4" cy="49.2" r=".3969"/><circle cx="110.3" cy="54.42" r=".3969"/><circle cx="105.4" cy="54.21" r=".3969"/></g><g transform="translate(3.551e-7 -2.114e-6)"><circle cx="17.86" cy="50.4" r=".3969"/><circle cx="24.9" cy="55.54" r=".3969"/><circle cx="16.33" cy="59.09" r=".3969"/></g><g transform="translate(3.551e-7 -2.114e-6)"><circle cx="17.86" cy="50.4" r=".3969"/><circle cx="10.52" cy="52.23" r=".3969"/><circle cx="16.33" cy="59.09" r=".3969"/></g><g transform="translate(3.551e-7 -2.114e-6)"><circle cx="23.1" cy="47.39" r=".3969"/><circle cx="28.76" cy="48.79" r=".3969"/><circle cx="24.9" cy="55.54" r=".3969"/></g><g transform="translate(3.551e-7 -2.114e-6)"><circle cx="51.41" cy="52.28" r=".3969"/><circle cx="62.69" cy="54.28" r=".3969"/><circle cx="59.19" cy="58.12" r=".3969"/></g><g transform="translate(3.551e-7 -2.114e-6)"><circle cx="23.1" cy="47.39" r=".3969"/><circle cx="25.22" cy="42.62" r=".3969"/><circle cx="28.76" cy="48.79" r=".3969"/></g><g><circle cx="130.8" cy="42.34" r=".3969"/><circle cx="130.5" cy="58.23" r=".3969"/><circle cx="122.8" cy="59.24" r=".3969"/><circle cx="123.1" cy="40.24" r=".3969"/></g><g transform="translate(3.551e-7 -2.114e-6)"><circle cx="44.9" cy="57.02" r=".3969"/><circle cx="51.41" cy="52.28" r=".3969"/><circle cx="53.15" cy="59.81" r=".3969"/></g><g transform="translate(3.551e-7 -2.114e-6)"><circle cx="51.41" cy="52.28" r=".3969"/><circle cx="59.19" cy="58.12" r=".3969"/><circle cx="53.15" cy="59.81" r=".3969"/></g><g transform="translate(3.551e-7 -2.114e-6)"><circle cx="25.22" cy="42.62" r=".3969"/><circle cx="28.76" cy="39.81" r=".3969"/><circle cx="28.76" cy="48.79" r=".3969"/></g><g transform="translate(3.551e-7 -2.114e-6)"><circle cx="123.1" cy="40.24" r=".3969"/><circle cx="122.8" cy="59.24" r=".3969"/><circle cx="116.3" cy="55.64" r=".3969"/><circle cx="116.8" cy="47" r=".3969"/></g><g transform="translate(3.551e-7 -2.114e-6)"><circle cx="73.85" cy="48.48" r=".3969"/><circle cx="73.64" cy="40.16" r=".3969"/><circle cx="80.53" cy="41.73" r=".3969"/><circle cx="80.35" cy="48.24" r=".3969"/></g><g transform="translate(3.551e-7 -2.114e-6)"><circle cx="141.1" cy="53.04" r=".3969"/><circle cx="141.8" cy="45.98" r=".3969"/><circle cx="144.8" cy="42.3" r=".3969"/><circle cx="151.6" cy="41.13" r=".3969"/><circle cx="157.9" cy="44.53" r=".3969"/><circle cx="161.2" cy="51.19" r=".3969"/><circle cx="160.1" cy="57.16" r=".3969"/><circle cx="150.3" cy="59.73" r=".3969"/><circle cx="145.2" cy="59.34" r=".3969"/></g><g transform="translate(3.551e-7 -2.114e-6)"><circle cx="54.85" cy="40.47" r=".3969"/><circle cx="51.41" cy="52.28" r=".3969"/><circle cx="48.69" cy="40.12" r=".3969"/></g><g transform="translate(3.551e-7 -2.114e-6)"><circle cx="43.17" cy="42.98" r=".3969"/><circle cx="48.69" cy="40.12" r=".3969"/><circle cx="51.41" cy="52.28" r=".3969"/></g><g transform="translate(3.551e-7 -2.114e-6)"><circle cx="43.17" cy="42.98" r=".3969"/><circle cx="41.13" cy="49.14" r=".3969"/><circle cx="51.41" cy="52.28" r=".3969"/></g><g transform="translate(3.551e-7 -2.114e-6)"><circle cx="72.92" cy="53.85" r=".3969"/><circle cx="80.47" cy="52.4" r=".3969"/><circle cx="81.77" cy="59.07" r=".3969"/><circle cx="74.22" cy="59.34" r=".3969"/></g><g transform="translate(3.551e-7 -2.114e-6)"><circle cx="116.8" cy="47" r=".3969"/><circle cx="116.3" cy="55.64" r=".3969"/><circle cx="110.3" cy="54.42" r=".3969"/><circle cx="110.4" cy="49.2" r=".3969"/></g><g transform="translate(3.551e-7 -2.114e-6)"><circle cx="7.263" cy="59.4" r=".3969"/><circle cx="10.52" cy="52.23" r=".3969"/><circle cx="16.33" cy="59.09" r=".3969"/></g><g transform="translate(3.551e-7 -2.114e-6)"><circle cx="84.36" cy="42.93" r=".3969"/><circle cx="96.74" cy="41.19" r=".3969"/><circle cx="96.96" cy="57.14" r=".3969"/><circle cx="83.92" cy="55.16" r=".3969"/></g><g transform="translate(3.551e-7 -2.114e-6)"><circle cx="62.97" cy="50.35" r=".3969"/><circle cx="62.69" cy="54.28" r=".3969"/><circle cx="51.41" cy="52.28" r=".3969"/></g><g fill="#999999" font-family="monospace" font-size="1.869px" writing-mode="lr"><text x="91.768997" y="7.8595357" style="font-feature-settings:normal;font-variant-caps:normal;font-variant-ligatures:normal;font-variant-numeric:normal">v0</text><text x="80.65316" y="6.6997805" style="font-feature-settings:normal;font-variant-caps:normal;font-variant-ligatures:normal;font-variant-numeric:normal">v1</text><text x="73.183212" y="12.20845" style="font-feature-settings:normal;font-variant-caps:normal;font-variant-ligatures:normal;font-variant-numeric:normal">v2</text><text x="72.527786" y="19.96718" style="font-feature-settings:normal;font-variant-caps:normal;font-variant-ligatures:normal;font-variant-numeric:normal">v3</text><text x="77.601929" y="26.768702" style="font-feature-settings:normal;font-variant-caps:normal;font-variant-ligatures:normal;font-variant-numeric:normal">v4</text><text x="86.041664" y="28.742596" style="font-feature-settings:normal;font-variant-caps:normal;font-variant-ligatures:normal;font-variant-numeric:normal">v5</text><text x="91.550865" y="27.331638" style="font-feature-settings:normal;font-variant-caps:normal;font-variant-ligatures:normal;font-variant-numeric:normal">v6</text><text x="93.776108" y="21.780718" style="font-feature-settings:normal;font-variant-caps:normal;font-variant-ligatures:normal;font-variant-numeric:normal">v7</text><text x="91.305763" y="17.226406" style="font-feature-settings:normal;font-variant-caps:normal;font-variant-ligatures:normal;font-variant-numeric:normal">v8</text><text x="83.731514" y="17.589586" style="font-feature-settings:normal;font-variant-caps:normal;font-variant-ligatures:normal;font-variant-numeric:normal">v9</text><text x="40.578972" y="8.2439308" style="font-feature-settings:normal;font-variant-caps:normal;font-variant-ligatures:normal;font-variant-numeric:normal">v0</text><text x="61.49398" y="10.31908" style="font-feature-settings:normal;font-variant-caps:normal;font-variant-ligatures:normal;font-variant-numeric:normal">v1</text><text x="43.748634" y="17.215567" style="font-feature-settings:normal;font-variant-caps:normal;font-variant-ligatures:normal;font-variant-numeric:normal">v2</text><text x="56.721123" y="6.7779498" style="font-feature-settings:normal;font-variant-caps:normal;font-variant-ligatures:normal;font-variant-numeric:normal">v3</text><text x="39.051926" y="20.668308" style="font-feature-settings:normal;font-variant-caps:normal;font-variant-ligatures:normal;font-variant-numeric:normal">v4</text><text x="61.013313" y="21.319284" style="font-feature-settings:normal;font-variant-caps:normal;font-variant-ligatures:normal;font-variant-numeric:normal">v5</text><text x="44.191681" y="24.111708" style="font-feature-settings:normal;font-variant-caps:normal;font-variant-ligatures:normal;font-variant-numeric:normal">v6</text><text x="56.881504" y="15.924939" style="font-feature-settings:normal;font-variant-caps:normal;font-variant-ligatures:normal;font-variant-numeric:normal">v7</text><text x="39.775742" y="27.355455" style="font-feature-settings:normal;font-variant-caps:normal;font-variant-ligatures:normal;font-variant-numeric:normal">v8</text><text x="60.261497" y="28.407551" style="font-feature-settings:normal;font-variant-caps:normal;font-variant-ligatures:normal;font-variant-numeric:normal">v9</text><text x="8.8631477" y="11.498805" style="font-feature-settings:normal;font-variant-caps:normal;font-variant-ligatures:normal;font-variant-numeric:normal">v0</text><text x="13.251903" y="13.494081" style="font-feature-settings:normal;font-variant-caps:normal;font-variant-ligatures:normal;font-variant-numeric:normal">v1</text><text x="21.14822" y="12.842452" style="font-feature-settings:normal;font-variant-caps:normal;font-variant-ligatures:normal;font-variant-numeric:normal">v2</text><text x="26.761957" y="18.319775" style="font-feature-settings:normal;font-variant-caps:normal;font-variant-ligatures:normal;font-variant-numeric:normal">v3</text><text x="6.1160941" y="17.173811" style="font-feature-settings:normal;font-variant-caps:normal;font-variant-ligatures:normal;font-variant-numeric:normal">v4</text><text x="17.746653" y="18.443813" style="font-feature-settings:normal;font-variant-caps:normal;font-variant-ligatures:normal;font-variant-numeric:normal">v5</text><text x="13.22502" y="21.460882" style="font-feature-settings:normal;font-variant-caps:normal;font-variant-ligatures:normal;font-variant-numeric:normal">v6</text><text x="8.6456785" y="28.909491" style="font-feature-settings:normal;font-variant-caps:normal;font-variant-ligatures:normal;font-variant-numeric:normal">v7</text><text x="20.019917" y="25.902744" style="font-feature-settings:normal;font-variant-caps:normal;font-variant-ligatures:normal;font-variant-numeric:normal">v8</text><text x="28.16567" y="27.399139" style="font-feature-settings:normal;font-variant-caps:normal;font-variant-ligatures:normal;font-variant-numeric:normal">v9</text><text x="6.2631478" y="62.418617" style="font-feature-settings:normal;font-variant-caps:normal;font-variant-ligatures:normal;font-variant-numeric:normal">v0</text><text x="9.4319038" y="51.23465" style="font-feature-settings:normal;font-variant-caps:normal;font-variant-ligatures:normal;font-variant-numeric:normal">v1</text><text x="15.612804" y="61.515804" style="font-feature-settings:normal;font-variant-caps:normal;font-variant-ligatures:normal;font-variant-numeric:normal">v2</text><text x="16.437372" y="49.35091" style="font-feature-settings:normal;font-variant-caps:normal;font-variant-ligatures:normal;font-variant-numeric:normal">v3</text><text x="24.771509" y="57.704979" style="font-feature-settings:normal;font-variant-caps:normal;font-variant-ligatures:normal;font-variant-numeric:normal">v4</text><text x="20.53582" y="46.988857" style="font-feature-settings:normal;font-variant-caps:normal;font-variant-ligatures:normal;font-variant-numeric:normal">v5</text><text x="29.200436" y="50.485172" style="font-feature-settings:normal;font-variant-caps:normal;font-variant-ligatures:normal;font-variant-numeric:normal">v6</text><text x="22.585678" y="42.388268" style="font-feature-settings:normal;font-variant-caps:normal;font-variant-ligatures:normal;font-variant-numeric:normal">v7</text><text x="29.439917" y="40.130337" style="font-feature-settings:normal;font-variant-caps:normal;font-variant-ligatures:normal;font-variant-numeric:normal">v8</text><text x="52.683147" y="51.051525" style="font-feature-settings:normal;font-variant-caps:normal;font-variant-ligatures:normal;font-variant-numeric:normal">v0</text><text x="55.811905" y="40.930882" style="font-feature-settings:normal;font-variant-caps:normal;font-variant-ligatures:normal;font-variant-numeric:normal">v1</text><text x="47.572807" y="39.061169" style="font-feature-settings:normal;font-variant-caps:normal;font-variant-ligatures:normal;font-variant-numeric:normal">v2</text><text x="40.081955" y="42.941006" style="font-feature-settings:normal;font-variant-caps:normal;font-variant-ligatures:normal;font-variant-numeric:normal">v3</text><text x="38.176094" y="49.762493" style="font-feature-settings:normal;font-variant-caps:normal;font-variant-ligatures:normal;font-variant-numeric:normal">v4</text><text x="41.775818" y="58.370934" style="font-feature-settings:normal;font-variant-caps:normal;font-variant-ligatures:normal;font-variant-numeric:normal">v5</text><text x="52.745022" y="62.121853" style="font-feature-settings:normal;font-variant-caps:normal;font-variant-ligatures:normal;font-variant-numeric:normal">v6</text><text x="59.305679" y="60.374947" style="font-feature-settings:normal;font-variant-caps:normal;font-variant-ligatures:normal;font-variant-numeric:normal">v7</text><text x="62.679916" y="56.88895" style="font-feature-settings:normal;font-variant-caps:normal;font-variant-ligatures:normal;font-variant-numeric:normal">v8</text><text x="61.805672" y="49.099968" style="font-feature-settings:normal;font-variant-caps:normal;font-variant-ligatures:normal;font-variant-numeric:normal">v9</text><text x="72.123146" y="39.100338" style="font-feature-settings:normal;font-variant-caps:normal;font-variant-ligatures:normal;font-variant-numeric:normal">v0</text><text x="80.311905" y="40.691254" style="font-feature-settings:normal;font-variant-caps:normal;font-variant-ligatures:normal;font-variant-numeric:normal">v1</text><text x="72.112808" y="51.012344" style="font-feature-settings:normal;font-variant-caps:normal;font-variant-ligatures:normal;font-variant-numeric:normal">v2</text><text x="79.441956" y="50.593948" style="font-feature-settings:normal;font-variant-caps:normal;font-variant-ligatures:normal;font-variant-numeric:normal">v3</text><text x="73.736092" y="55.603291" style="font-feature-settings:normal;font-variant-caps:normal;font-variant-ligatures:normal;font-variant-numeric:normal">v4</text><text x="77.85582" y="54.971283" style="font-feature-settings:normal;font-variant-caps:normal;font-variant-ligatures:normal;font-variant-numeric:normal">v5</text><text x="73.129601" y="61.872238" style="font-feature-settings:normal;font-variant-caps:normal;font-variant-ligatures:normal;font-variant-numeric:normal">v6</text><text x="81.025673" y="61.363384" style="font-feature-settings:normal;font-variant-caps:normal;font-variant-ligatures:normal;font-variant-numeric:normal">v7</text><text x="85.127434" y="44.937759" style="font-feature-settings:normal;font-variant-caps:normal;font-variant-ligatures:normal;font-variant-numeric:normal">v8</text><text x="93.625671" y="43.858219" style="font-feature-settings:normal;font-variant-caps:normal;font-variant-ligatures:normal;font-variant-numeric:normal">v9</text><text x="129.14316" y="40.927464" style="font-feature-settings:normal;font-variant-caps:normal;font-variant-ligatures:normal;font-variant-numeric:normal">v0</text><text x="129.11191" y="60.819557" style="font-feature-settings:normal;font-variant-caps:normal;font-variant-ligatures:normal;font-variant-numeric:normal">v1</text><text x="121.9728" y="39.215923" style="font-feature-settings:normal;font-variant-caps:normal;font-variant-ligatures:normal;font-variant-numeric:normal">v2</text><text x="121.84196" y="61.706451" style="font-feature-settings:normal;font-variant-caps:normal;font-variant-ligatures:normal;font-variant-numeric:normal">v3</text><text x="114.54067" y="46.063316" style="font-feature-settings:normal;font-variant-caps:normal;font-variant-ligatures:normal;font-variant-numeric:normal">v4</text><text x="114.61581" y="58.041454" style="font-feature-settings:normal;font-variant-caps:normal;font-variant-ligatures:normal;font-variant-numeric:normal">v5</text><text x="108.9496" y="48.308601" style="font-feature-settings:normal;font-variant-caps:normal;font-variant-ligatures:normal;font-variant-numeric:normal">v6</text><text x="109.28568" y="56.91539" style="font-feature-settings:normal;font-variant-caps:normal;font-variant-ligatures:normal;font-variant-numeric:normal">v7</text><text x="103.9845" y="49.765167" style="font-feature-settings:normal;font-variant-caps:normal;font-variant-ligatures:normal;font-variant-numeric:normal">v8</text><text x="104.50567" y="56.513294" style="font-feature-settings:normal;font-variant-caps:normal;font-variant-ligatures:normal;font-variant-numeric:normal">v9</text><text x="158.22316" y="44.042557" style="font-feature-settings:normal;font-variant-caps:normal;font-variant-ligatures:normal;font-variant-numeric:normal">v0</text><text x="161.8519" y="51.584099" style="font-feature-settings:normal;font-variant-caps:normal;font-variant-ligatures:normal;font-variant-numeric:normal">v1</text><text x="159.5974" y="59.224415" style="font-feature-settings:normal;font-variant-caps:normal;font-variant-ligatures:normal;font-variant-numeric:normal">v2</text><text x="149.52196" y="61.995995" style="font-feature-settings:normal;font-variant-caps:normal;font-variant-ligatures:normal;font-variant-numeric:normal">v3</text><text x="143.24068" y="61.723652" style="font-feature-settings:normal;font-variant-caps:normal;font-variant-ligatures:normal;font-variant-numeric:normal">v4</text><text x="138.2204" y="53.863037" style="font-feature-settings:normal;font-variant-caps:normal;font-variant-ligatures:normal;font-variant-numeric:normal">v5</text><text x="138.6096" y="46.231873" style="font-feature-settings:normal;font-variant-caps:normal;font-variant-ligatures:normal;font-variant-numeric:normal">v6</text><text x="143.63593" y="41.371357" style="font-feature-settings:normal;font-variant-caps:normal;font-variant-ligatures:normal;font-variant-numeric:normal">v7</text><text x="150.71992" y="40.354984" style="font-feature-settings:normal;font-variant-caps:normal;font-variant-ligatures:normal;font-variant-numeric:normal">v8</text><text x="94.605667" y="59.473621" style="font-feature-settings:normal;font-variant-caps:normal;font-variant-ligatures:normal;font-variant-numeric:normal">v10</text><text x="83.303589" y="57.776295" style="font-feature-settings:normal;font-variant-caps:normal;font-variant-ligatures:normal;font-variant-numeric:normal">v11</text></g><text x="1.8520833" y="-15.081246" fill="#000000" font-family="monospace" font-size="1.869px" letter-spacing="0px" stroke-width=".2646px" word-spacing="0px" writing-mode="lr" style="font-feature-settings:normal;font-variant-caps:normal;font-variant-ligatures:normal;font-variant-numeric:normal;line-height:6.61458302px" xml:space="preserve"><tspan x="1.8520833" y="-10.514034" font-family="monospace" font-size="1.869px" stroke-width=".2646px" writing-mode="lr" style="font-feature-settings:normal;font-variant-caps:normal;font-variant-ligatures:normal;font-variant-numeric:normal"/></text></g></svg>
